<svg width="44" height="45" viewBox="0 0 44 45" fill="none" xmlns="http://www.w3.org/2000/svg">
<circle cx="29.5" cy="22.5" r="22.5" fill="#D3ECF9"/>
<path d="M36.8867 15.207C37.5015 15.207 38 14.7086 38 14.0938V9.64062C38 9.0258 37.5015 8.52734 36.8867 8.52734H33.4727V5.11328C33.4727 4.49845 32.9742 4 32.3594 4H27.9062C27.2914 4 26.793 4.49845 26.793 5.11328V8.52734H22.3398V5.11328C22.3398 4.49845 21.8414 4 21.2266 4H16.7734C16.1586 4 15.6602 4.49845 15.6602 5.11328V8.52734H11.207V5.11328C11.207 4.49845 10.7086 4 10.0938 4H5.64062C5.0258 4 4.52734 4.49845 4.52734 5.11328V8.52734H1.11328C0.498453 8.52734 0 9.0258 0 9.64062V14.0938C0 14.7086 0.498453 15.207 1.11328 15.207H4.52734V19.6602H1.11328C0.498453 19.6602 0 20.1586 0 20.7734V25.2266C0 25.8414 0.498453 26.3398 1.11328 26.3398H4.52734V30.793H1.11328C0.498453 30.793 0 31.2914 0 31.9062V36.3594C0 36.9742 0.498453 37.4727 1.11328 37.4727H4.52734V40.8867C4.52734 41.5015 5.0258 42 5.64062 42H10.0938C10.7086 42 11.207 41.5015 11.207 40.8867V37.4727H15.6602V40.8867C15.6602 41.5015 16.1586 42 16.7734 42H21.2266C21.8414 42 22.3398 41.5015 22.3398 40.8867V37.4727H26.793V40.8867C26.793 41.5015 27.2914 42 27.9062 42H32.3594C32.9742 42 33.4727 41.5015 33.4727 40.8867V37.4727H36.8867C37.5015 37.4727 38 36.9742 38 36.3594V31.9062C38 31.2914 37.5015 30.793 36.8867 30.793H33.4727V26.3398H36.8867C37.5015 26.3398 38 25.8414 38 25.2266V20.7734C38 20.1586 37.5015 19.6602 36.8867 19.6602H33.4727V15.207H36.8867ZM29.0195 6.22656H31.2461V8.52734H29.0195V6.22656ZM35.7734 10.7539V12.9805H22.3398V10.7539H35.7734ZM22.3398 30.793V26.3398H26.793V30.793H22.3398ZM15.6602 30.793H11.207V26.3398H15.6602V30.793ZM15.6602 15.207V19.6602H11.207V15.207H15.6602ZM11.207 24.1133V21.8867H26.793V24.1133H11.207ZM26.793 19.6602H22.3398V15.207H26.793V19.6602ZM17.8867 6.22656H20.1133V19.6602H17.8867V6.22656ZM6.75391 6.22656H8.98047V8.52734H6.75391V6.22656ZM2.22656 10.7539H15.6602V12.9805H2.22656V10.7539ZM2.22656 24.1133V21.8867H4.52734V24.1133H2.22656ZM6.75391 15.207H8.98047V30.793H6.75391V15.207ZM8.98047 39.7734H6.75391V37.4727H8.98047V39.7734ZM2.22656 35.2461V33.0195H15.6602V35.2461H2.22656ZM20.1133 39.7734H17.8867V26.3398H20.1133V39.7734ZM31.2461 39.7734H29.0195V37.4727H31.2461V39.7734ZM35.7734 35.2461H22.3398V33.0195H35.7734V35.2461ZM35.7734 21.8867V24.1133H33.4727V21.8867H35.7734ZM31.2461 30.793H29.0195V15.207H31.2461V30.793Z" fill="#114965"/>
</svg>
